<svg width="44" height="44" viewBox="0 0 44 44" fill="none" xmlns="http://www.w3.org/2000/svg">
<g opacity="0.44">
<g clip-path="url(#clip0_3728_1034)">
<path d="M33 31.2812L23.7187 22L33 12.7187C33.4746 12.2441 33.4746 11.4746 33 11C32.5254 10.5254 31.7559 10.5254 31.2812 11L22 20.2812L12.7188 11C12.2441 10.5254 11.4746 10.5254 11 11C10.5254 11.4746 10.5254 12.2441 11 12.7187L20.2813 22L11 31.2812C10.5254 31.7559 10.5254 32.5254 11 33C11.4746 33.4746 12.2441 33.4746 12.7188 33L22 23.7187L31.2812 33C31.7559 33.4746 32.5254 33.4746 33 33C33.4746 32.5254 33.4746 31.7559 33 31.2812Z" fill="#B7C6D8"/>
</g>
</g>
<defs>
<clipPath id="clip0_3728_1034">
<rect width="31.1127" height="31.1127" fill="white" transform="translate(22) rotate(45)"/>
</clipPath>
</defs>
</svg>
