<svg width="648" height="72" viewBox="0 0 648 72" fill="none" xmlns="http://www.w3.org/2000/svg">
<rect width="648" height="72" rx="16" fill="#EFF3F8"/>
<path d="M77.8438 42H75.4219V32.5938H72.3203V30.5781H80.9453V32.5938H77.8438V42ZM83.5797 37.6172C83.5797 38.4818 83.7203 39.1354 84.0016 39.5781C84.288 40.0208 84.7516 40.2422 85.3922 40.2422C86.0276 40.2422 86.4833 40.0234 86.7594 39.5859C87.0406 39.1432 87.1812 38.487 87.1812 37.6172C87.1812 36.7526 87.0406 36.1042 86.7594 35.6719C86.4781 35.2396 86.0172 35.0234 85.3766 35.0234C84.7411 35.0234 84.2828 35.2396 84.0016 35.6719C83.7203 36.099 83.5797 36.7474 83.5797 37.6172ZM89.6187 37.6172C89.6187 39.0391 89.2437 40.151 88.4937 40.9531C87.7437 41.7552 86.6995 42.1562 85.3609 42.1562C84.5224 42.1562 83.7828 41.974 83.1422 41.6094C82.5016 41.2396 82.0094 40.7109 81.6656 40.0234C81.3219 39.3359 81.15 38.5339 81.15 37.6172C81.15 36.1901 81.5224 35.0807 82.2672 34.2891C83.012 33.4974 84.0589 33.1016 85.4078 33.1016C86.2464 33.1016 86.9859 33.2839 87.6266 33.6484C88.2672 34.013 88.7594 34.5365 89.1031 35.2188C89.4469 35.901 89.6187 36.7005 89.6187 37.6172ZM99.9656 42.1562C98.9396 42.1562 98.1349 41.7839 97.5516 41.0391H97.4266C97.5099 41.7682 97.5516 42.1901 97.5516 42.3047V45.8438H95.1687V33.2656H97.1062L97.4422 34.3984H97.5516C98.1089 33.5339 98.9344 33.1016 100.028 33.1016C101.059 33.1016 101.867 33.5 102.45 34.2969C103.033 35.0938 103.325 36.2005 103.325 37.6172C103.325 38.5495 103.187 39.3594 102.911 40.0469C102.64 40.7344 102.252 41.2578 101.747 41.6172C101.242 41.9766 100.648 42.1562 99.9656 42.1562ZM99.2625 35.0078C98.674 35.0078 98.2443 35.1901 97.9734 35.5547C97.7026 35.9141 97.562 36.5104 97.5516 37.3438V37.6016C97.5516 38.5391 97.6896 39.2109 97.9656 39.6172C98.2469 40.0234 98.6896 40.2266 99.2937 40.2266C100.361 40.2266 100.895 39.3464 100.895 37.5859C100.895 36.7266 100.762 36.0833 100.497 35.6562C100.236 35.224 99.825 35.0078 99.2625 35.0078ZM108.623 34.7969C108.118 34.7969 107.722 34.9583 107.436 35.2812C107.149 35.599 106.985 36.0521 106.944 36.6406H110.288C110.277 36.0521 110.123 35.599 109.827 35.2812C109.53 34.9583 109.129 34.7969 108.623 34.7969ZM108.959 42.1562C107.553 42.1562 106.454 41.7682 105.663 40.9922C104.871 40.2161 104.475 39.1172 104.475 37.6953C104.475 36.2318 104.84 35.1016 105.569 34.3047C106.303 33.5026 107.316 33.1016 108.608 33.1016C109.842 33.1016 110.803 33.4531 111.491 34.1562C112.178 34.8594 112.522 35.8307 112.522 37.0703V38.2266H106.889C106.915 38.9036 107.116 39.4323 107.491 39.8125C107.866 40.1927 108.392 40.3828 109.069 40.3828C109.595 40.3828 110.092 40.3281 110.561 40.2188C111.03 40.1094 111.519 39.9349 112.03 39.6953V41.5391C111.613 41.7474 111.168 41.901 110.694 42C110.22 42.1042 109.642 42.1562 108.959 42.1562ZM119.047 33.1016C119.37 33.1016 119.638 33.125 119.852 33.1719L119.672 35.4062C119.479 35.3542 119.245 35.3281 118.969 35.3281C118.208 35.3281 117.615 35.5234 117.188 35.9141C116.766 36.3047 116.555 36.8516 116.555 37.5547V42H114.172V33.2656H115.977L116.328 34.7344H116.445C116.716 34.2448 117.081 33.8516 117.539 33.5547C118.003 33.2526 118.505 33.1016 119.047 33.1016ZM125.978 35.0547H123.916V42H121.533V35.0547H120.22V33.9062L121.533 33.2656V32.625C121.533 31.6302 121.778 30.9036 122.267 30.4453C122.757 29.987 123.541 29.7578 124.619 29.7578C125.442 29.7578 126.173 29.8802 126.814 30.125L126.205 31.875C125.726 31.724 125.283 31.6484 124.877 31.6484C124.538 31.6484 124.293 31.75 124.142 31.9531C123.991 32.151 123.916 32.4062 123.916 32.7188V33.2656H125.978V35.0547ZM128.964 37.6172C128.964 38.4818 129.105 39.1354 129.386 39.5781C129.672 40.0208 130.136 40.2422 130.777 40.2422C131.412 40.2422 131.868 40.0234 132.144 39.5859C132.425 39.1432 132.566 38.487 132.566 37.6172C132.566 36.7526 132.425 36.1042 132.144 35.6719C131.862 35.2396 131.402 35.0234 130.761 35.0234C130.126 35.0234 129.667 35.2396 129.386 35.6719C129.105 36.099 128.964 36.7474 128.964 37.6172ZM135.003 37.6172C135.003 39.0391 134.628 40.151 133.878 40.9531C133.128 41.7552 132.084 42.1562 130.745 42.1562C129.907 42.1562 129.167 41.974 128.527 41.6094C127.886 41.2396 127.394 40.7109 127.05 40.0234C126.706 39.3359 126.534 38.5339 126.534 37.6172C126.534 36.1901 126.907 35.0807 127.652 34.2891C128.396 33.4974 129.443 33.1016 130.792 33.1016C131.631 33.1016 132.37 33.2839 133.011 33.6484C133.652 34.013 134.144 34.5365 134.487 35.2188C134.831 35.901 135.003 36.7005 135.003 37.6172ZM141.559 33.1016C141.882 33.1016 142.151 33.125 142.364 33.1719L142.184 35.4062C141.992 35.3542 141.757 35.3281 141.481 35.3281C140.721 35.3281 140.127 35.5234 139.7 35.9141C139.278 36.3047 139.067 36.8516 139.067 37.5547V42H136.684V33.2656H138.489L138.841 34.7344H138.958C139.229 34.2448 139.593 33.8516 140.052 33.5547C140.515 33.2526 141.018 33.1016 141.559 33.1016ZM151.483 42H149.1V36.8984C149.1 36.2682 148.993 35.7969 148.78 35.4844C148.571 35.1667 148.241 35.0078 147.787 35.0078C147.178 35.0078 146.735 35.2318 146.459 35.6797C146.183 36.1276 146.045 36.8646 146.045 37.8906V42H143.662V33.2656H145.483L145.803 34.3828H145.936C146.17 33.9818 146.509 33.6693 146.952 33.4453C147.394 33.2161 147.902 33.1016 148.475 33.1016C149.782 33.1016 150.668 33.5286 151.131 34.3828H151.342C151.577 33.9766 151.92 33.6615 152.373 33.4375C152.832 33.2135 153.347 33.1016 153.92 33.1016C154.91 33.1016 155.657 33.3568 156.162 33.8672C156.673 34.3724 156.928 35.1849 156.928 36.3047V42H154.537V36.8984C154.537 36.2682 154.431 35.7969 154.217 35.4844C154.009 35.1667 153.678 35.0078 153.225 35.0078C152.642 35.0078 152.204 35.2161 151.912 35.6328C151.626 36.0495 151.483 36.7109 151.483 37.6172V42ZM168.509 42L168.048 40.8125H167.986C167.585 41.3177 167.171 41.6693 166.744 41.8672C166.322 42.0599 165.77 42.1562 165.088 42.1562C164.249 42.1562 163.588 41.9167 163.103 41.4375C162.624 40.9583 162.384 40.276 162.384 39.3906C162.384 38.4635 162.707 37.7812 163.353 37.3438C164.004 36.901 164.983 36.6562 166.291 36.6094L167.806 36.5625V36.1797C167.806 35.2943 167.353 34.8516 166.447 34.8516C165.749 34.8516 164.929 35.0625 163.986 35.4844L163.197 33.875C164.202 33.349 165.317 33.0859 166.541 33.0859C167.713 33.0859 168.611 33.3411 169.236 33.8516C169.861 34.362 170.173 35.138 170.173 36.1797V42H168.509ZM167.806 37.9531L166.884 37.9844C166.192 38.0052 165.676 38.1302 165.338 38.3594C164.999 38.5885 164.83 38.9375 164.83 39.4062C164.83 40.0781 165.215 40.4141 165.986 40.4141C166.538 40.4141 166.978 40.2552 167.306 39.9375C167.64 39.6198 167.806 39.1979 167.806 38.6719V37.9531ZM175.894 42.1562C173.175 42.1562 171.816 40.6641 171.816 37.6797C171.816 36.1953 172.185 35.0625 172.925 34.2812C173.665 33.4948 174.724 33.1016 176.105 33.1016C177.115 33.1016 178.021 33.2995 178.823 33.6953L178.12 35.5391C177.745 35.388 177.396 35.2656 177.073 35.1719C176.751 35.0729 176.428 35.0234 176.105 35.0234C174.865 35.0234 174.245 35.9036 174.245 37.6641C174.245 39.3724 174.865 40.2266 176.105 40.2266C176.563 40.2266 176.987 40.1667 177.378 40.0469C177.769 39.9219 178.159 39.7292 178.55 39.4688V41.5078C178.165 41.7526 177.774 41.9219 177.378 42.0156C176.987 42.1094 176.493 42.1562 175.894 42.1562ZM183.973 40.2578C184.39 40.2578 184.89 40.1667 185.473 39.9844V41.7578C184.88 42.0234 184.151 42.1562 183.286 42.1562C182.333 42.1562 181.637 41.9167 181.2 41.4375C180.768 40.9531 180.552 40.2292 180.552 39.2656V35.0547H179.411V34.0469L180.723 33.25L181.411 31.4062H182.934V33.2656H185.38V35.0547H182.934V39.2656C182.934 39.6042 183.028 39.8542 183.216 40.0156C183.408 40.1771 183.661 40.2578 183.973 40.2578ZM186.858 31.0078C186.858 30.2318 187.29 29.8438 188.155 29.8438C189.019 29.8438 189.452 30.2318 189.452 31.0078C189.452 31.3776 189.342 31.6667 189.123 31.875C188.91 32.0781 188.587 32.1797 188.155 32.1797C187.29 32.1797 186.858 31.7891 186.858 31.0078ZM189.342 42H186.959V33.2656H189.342V42ZM193.461 37.6172C193.461 38.4818 193.602 39.1354 193.883 39.5781C194.169 40.0208 194.633 40.2422 195.273 40.2422C195.909 40.2422 196.365 40.0234 196.641 39.5859C196.922 39.1432 197.062 38.487 197.062 37.6172C197.062 36.7526 196.922 36.1042 196.641 35.6719C196.359 35.2396 195.898 35.0234 195.258 35.0234C194.622 35.0234 194.164 35.2396 193.883 35.6719C193.602 36.099 193.461 36.7474 193.461 37.6172ZM199.5 37.6172C199.5 39.0391 199.125 40.151 198.375 40.9531C197.625 41.7552 196.581 42.1562 195.242 42.1562C194.404 42.1562 193.664 41.974 193.023 41.6094C192.383 41.2396 191.891 40.7109 191.547 40.0234C191.203 39.3359 191.031 38.5339 191.031 37.6172C191.031 36.1901 191.404 35.0807 192.148 34.2891C192.893 33.4974 193.94 33.1016 195.289 33.1016C196.128 33.1016 196.867 33.2839 197.508 33.6484C198.148 34.013 198.641 34.5365 198.984 35.2188C199.328 35.901 199.5 36.7005 199.5 37.6172ZM209.244 42H206.861V36.8984C206.861 36.2682 206.749 35.7969 206.525 35.4844C206.301 35.1667 205.944 35.0078 205.455 35.0078C204.788 35.0078 204.306 35.2318 204.009 35.6797C203.713 36.1224 203.564 36.8594 203.564 37.8906V42H201.181V33.2656H203.002L203.322 34.3828H203.455C203.72 33.9609 204.085 33.6432 204.548 33.4297C205.017 33.2109 205.548 33.1016 206.142 33.1016C207.158 33.1016 207.929 33.3776 208.455 33.9297C208.981 34.4766 209.244 35.2682 209.244 36.3047V42ZM217.503 39.4062C217.503 40.3021 217.191 40.9844 216.566 41.4531C215.946 41.9219 215.016 42.1562 213.777 42.1562C213.141 42.1562 212.599 42.112 212.152 42.0234C211.704 41.9401 211.284 41.8151 210.894 41.6484V39.6797C211.336 39.888 211.834 40.0625 212.386 40.2031C212.943 40.3438 213.433 40.4141 213.855 40.4141C214.719 40.4141 215.152 40.1641 215.152 39.6641C215.152 39.4766 215.094 39.3255 214.98 39.2109C214.865 39.0911 214.667 38.9583 214.386 38.8125C214.105 38.6615 213.73 38.487 213.261 38.2891C212.589 38.0078 212.094 37.7474 211.777 37.5078C211.464 37.2682 211.235 36.9948 211.089 36.6875C210.948 36.375 210.878 35.9922 210.878 35.5391C210.878 34.763 211.178 34.1641 211.777 33.7422C212.381 33.3151 213.235 33.1016 214.339 33.1016C215.391 33.1016 216.415 33.3307 217.409 33.7891L216.691 35.5078C216.253 35.3203 215.844 35.1667 215.464 35.0469C215.084 34.9271 214.696 34.8672 214.3 34.8672C213.597 34.8672 213.245 35.0573 213.245 35.4375C213.245 35.651 213.357 35.8359 213.581 35.9922C213.81 36.1484 214.308 36.3802 215.073 36.6875C215.756 36.9635 216.256 37.2214 216.573 37.4609C216.891 37.7005 217.126 37.9766 217.277 38.2891C217.428 38.6016 217.503 38.974 217.503 39.4062ZM224.842 37.6172C224.842 38.4818 224.983 39.1354 225.264 39.5781C225.551 40.0208 226.014 40.2422 226.655 40.2422C227.29 40.2422 227.746 40.0234 228.022 39.5859C228.303 39.1432 228.444 38.487 228.444 37.6172C228.444 36.7526 228.303 36.1042 228.022 35.6719C227.741 35.2396 227.28 35.0234 226.639 35.0234C226.004 35.0234 225.545 35.2396 225.264 35.6719C224.983 36.099 224.842 36.7474 224.842 37.6172ZM230.881 37.6172C230.881 39.0391 230.506 40.151 229.756 40.9531C229.006 41.7552 227.962 42.1562 226.623 42.1562C225.785 42.1562 225.045 41.974 224.405 41.6094C223.764 41.2396 223.272 40.7109 222.928 40.0234C222.584 39.3359 222.412 38.5339 222.412 37.6172C222.412 36.1901 222.785 35.0807 223.53 34.2891C224.274 33.4974 225.321 33.1016 226.67 33.1016C227.509 33.1016 228.248 33.2839 228.889 33.6484C229.53 34.013 230.022 34.5365 230.366 35.2188C230.709 35.901 230.881 36.7005 230.881 37.6172ZM240.625 42H238.242V36.8984C238.242 36.2682 238.13 35.7969 237.906 35.4844C237.682 35.1667 237.326 35.0078 236.836 35.0078C236.169 35.0078 235.688 35.2318 235.391 35.6797C235.094 36.1224 234.945 36.8594 234.945 37.8906V42H232.562V33.2656H234.383L234.703 34.3828H234.836C235.102 33.9609 235.466 33.6432 235.93 33.4297C236.398 33.2109 236.93 33.1016 237.523 33.1016C238.539 33.1016 239.31 33.3776 239.836 33.9297C240.362 34.4766 240.625 35.2682 240.625 36.3047V42ZM250.339 40.2578C250.756 40.2578 251.256 40.1667 251.839 39.9844V41.7578C251.245 42.0234 250.516 42.1562 249.652 42.1562C248.698 42.1562 248.003 41.9167 247.566 41.4375C247.133 40.9531 246.917 40.2292 246.917 39.2656V35.0547H245.777V34.0469L247.089 33.25L247.777 31.4062H249.3V33.2656H251.745V35.0547H249.3V39.2656C249.3 39.6042 249.394 39.8542 249.581 40.0156C249.774 40.1771 250.027 40.2578 250.339 40.2578ZM261.387 42H259.005V36.8984C259.005 35.638 258.536 35.0078 257.598 35.0078C256.932 35.0078 256.45 35.2344 256.153 35.6875C255.856 36.1406 255.708 36.875 255.708 37.8906V42H253.325V29.8438H255.708V32.3203C255.708 32.513 255.69 32.9661 255.653 33.6797L255.598 34.3828H255.723C256.255 33.5286 257.098 33.1016 258.255 33.1016C259.281 33.1016 260.059 33.3776 260.591 33.9297C261.122 34.4818 261.387 35.2734 261.387 36.3047V42ZM267.17 34.7969C266.665 34.7969 266.269 34.9583 265.983 35.2812C265.696 35.599 265.532 36.0521 265.491 36.6406H268.834C268.824 36.0521 268.67 35.599 268.373 35.2812C268.077 34.9583 267.676 34.7969 267.17 34.7969ZM267.506 42.1562C266.1 42.1562 265.001 41.7682 264.209 40.9922C263.418 40.2161 263.022 39.1172 263.022 37.6953C263.022 36.2318 263.386 35.1016 264.116 34.3047C264.85 33.5026 265.863 33.1016 267.155 33.1016C268.389 33.1016 269.35 33.4531 270.037 34.1562C270.725 34.8594 271.069 35.8307 271.069 37.0703V38.2266H265.436C265.462 38.9036 265.662 39.4323 266.037 39.8125C266.412 40.1927 266.939 40.3828 267.616 40.3828C268.142 40.3828 268.639 40.3281 269.108 40.2188C269.577 40.1094 270.066 39.9349 270.577 39.6953V41.5391C270.16 41.7474 269.715 41.901 269.241 42C268.767 42.1042 268.189 42.1562 267.506 42.1562ZM281.384 42.1562C280.358 42.1562 279.554 41.7839 278.97 41.0391H278.845C278.929 41.7682 278.97 42.1901 278.97 42.3047V45.8438H276.587V33.2656H278.525L278.861 34.3984H278.97C279.528 33.5339 280.353 33.1016 281.447 33.1016C282.478 33.1016 283.285 33.5 283.869 34.2969C284.452 35.0938 284.744 36.2005 284.744 37.6172C284.744 38.5495 284.606 39.3594 284.33 40.0469C284.059 40.7344 283.671 41.2578 283.166 41.6172C282.66 41.9766 282.067 42.1562 281.384 42.1562ZM280.681 35.0078C280.093 35.0078 279.663 35.1901 279.392 35.5547C279.121 35.9141 278.981 36.5104 278.97 37.3438V37.6016C278.97 38.5391 279.108 39.2109 279.384 39.6172C279.666 40.0234 280.108 40.2266 280.712 40.2266C281.78 40.2266 282.314 39.3464 282.314 37.5859C282.314 36.7266 282.181 36.0833 281.916 35.6562C281.655 35.224 281.244 35.0078 280.681 35.0078ZM291.972 42L291.511 40.8125H291.448C291.047 41.3177 290.633 41.6693 290.206 41.8672C289.784 42.0599 289.232 42.1562 288.55 42.1562C287.711 42.1562 287.05 41.9167 286.566 41.4375C286.086 40.9583 285.847 40.276 285.847 39.3906C285.847 38.4635 286.17 37.7812 286.816 37.3438C287.467 36.901 288.446 36.6562 289.753 36.6094L291.269 36.5625V36.1797C291.269 35.2943 290.816 34.8516 289.909 34.8516C289.211 34.8516 288.391 35.0625 287.448 35.4844L286.659 33.875C287.665 33.349 288.779 33.0859 290.003 33.0859C291.175 33.0859 292.073 33.3411 292.698 33.8516C293.323 34.362 293.636 35.138 293.636 36.1797V42H291.972ZM291.269 37.9531L290.347 37.9844C289.654 38.0052 289.139 38.1302 288.8 38.3594C288.461 38.5885 288.292 38.9375 288.292 39.4062C288.292 40.0781 288.678 40.4141 289.448 40.4141C290.001 40.4141 290.441 40.2552 290.769 39.9375C291.102 39.6198 291.269 39.1979 291.269 38.6719V37.9531ZM299.427 40.2891C300.067 40.2891 300.526 40.1068 300.802 39.7422C301.078 39.3724 301.216 38.776 301.216 37.9531V37.6641C301.216 36.7318 301.07 36.0625 300.778 35.6562C300.492 35.2448 300.028 35.0391 299.387 35.0391C298.268 35.0391 297.708 35.9193 297.708 37.6797C297.708 38.5547 297.846 39.2083 298.122 39.6406C298.403 40.0729 298.838 40.2891 299.427 40.2891ZM303.442 42.0156C303.442 43.2708 303.075 44.2214 302.341 44.8672C301.611 45.5182 300.523 45.8438 299.075 45.8438C297.799 45.8438 296.71 45.6719 295.809 45.3281V43.4219C296.867 43.8698 298.002 44.0938 299.216 44.0938C300.44 44.0938 301.052 43.4323 301.052 42.1094V41.9375L301.122 40.8672H301.052C300.494 41.7266 299.669 42.1562 298.575 42.1562C297.528 42.1562 296.716 41.7526 296.137 40.9453C295.565 40.138 295.278 39.0391 295.278 37.6484C295.278 36.2161 295.575 35.1016 296.169 34.3047C296.768 33.5026 297.591 33.1016 298.637 33.1016C299.71 33.1016 300.554 33.5286 301.169 34.3828H301.231L301.427 33.2656H303.442V42.0156ZM309.264 34.7969C308.759 34.7969 308.363 34.9583 308.077 35.2812C307.79 35.599 307.626 36.0521 307.584 36.6406H310.928C310.918 36.0521 310.764 35.599 310.467 35.2812C310.17 34.9583 309.769 34.7969 309.264 34.7969ZM309.6 42.1562C308.194 42.1562 307.095 41.7682 306.303 40.9922C305.511 40.2161 305.116 39.1172 305.116 37.6953C305.116 36.2318 305.48 35.1016 306.209 34.3047C306.944 33.5026 307.957 33.1016 309.248 33.1016C310.483 33.1016 311.444 33.4531 312.131 34.1562C312.819 34.8594 313.162 35.8307 313.162 37.0703V38.2266H307.53C307.556 38.9036 307.756 39.4323 308.131 39.8125C308.506 40.1927 309.032 40.3828 309.709 40.3828C310.235 40.3828 310.733 40.3281 311.202 40.2188C311.67 40.1094 312.16 39.9349 312.67 39.6953V41.5391C312.254 41.7474 311.808 41.901 311.334 42C310.86 42.1042 310.282 42.1562 309.6 42.1562ZM317.031 39.75L317.148 39.9375C317.076 40.2396 316.987 40.5599 316.883 40.8984C316.784 41.2318 316.672 41.5703 316.547 41.9141C316.427 42.2526 316.299 42.5911 316.164 42.9297C316.034 43.2734 315.904 43.599 315.773 43.9062H314.055C314.133 43.5677 314.208 43.2161 314.281 42.8516C314.359 42.487 314.432 42.125 314.5 41.7656C314.573 41.4062 314.638 41.0547 314.695 40.7109C314.753 40.362 314.799 40.0417 314.836 39.75H317.031ZM326.581 42.1562C323.863 42.1562 322.503 40.6641 322.503 37.6797C322.503 36.1953 322.873 35.0625 323.613 34.2812C324.352 33.4948 325.412 33.1016 326.792 33.1016C327.803 33.1016 328.709 33.2995 329.511 33.6953L328.808 35.5391C328.433 35.388 328.084 35.2656 327.761 35.1719C327.438 35.0729 327.115 35.0234 326.792 35.0234C325.553 35.0234 324.933 35.9036 324.933 37.6641C324.933 39.3724 325.553 40.2266 326.792 40.2266C327.251 40.2266 327.675 40.1667 328.066 40.0469C328.456 39.9219 328.847 39.7292 329.238 39.4688V41.5078C328.852 41.7526 328.461 41.9219 328.066 42.0156C327.675 42.1094 327.18 42.1562 326.581 42.1562ZM332.88 37.6172C332.88 38.4818 333.02 39.1354 333.302 39.5781C333.588 40.0208 334.052 40.2422 334.692 40.2422C335.328 40.2422 335.783 40.0234 336.059 39.5859C336.341 39.1432 336.481 38.487 336.481 37.6172C336.481 36.7526 336.341 36.1042 336.059 35.6719C335.778 35.2396 335.317 35.0234 334.677 35.0234C334.041 35.0234 333.583 35.2396 333.302 35.6719C333.02 36.099 332.88 36.7474 332.88 37.6172ZM338.919 37.6172C338.919 39.0391 338.544 40.151 337.794 40.9531C337.044 41.7552 335.999 42.1562 334.661 42.1562C333.822 42.1562 333.083 41.974 332.442 41.6094C331.802 41.2396 331.309 40.7109 330.966 40.0234C330.622 39.3359 330.45 38.5339 330.45 37.6172C330.45 36.1901 330.822 35.0807 331.567 34.2891C332.312 33.4974 333.359 33.1016 334.708 33.1016C335.546 33.1016 336.286 33.2839 336.927 33.6484C337.567 34.013 338.059 34.5365 338.403 35.2188C338.747 35.901 338.919 36.7005 338.919 37.6172ZM348.663 42H346.28V36.8984C346.28 36.2682 346.168 35.7969 345.944 35.4844C345.72 35.1667 345.363 35.0078 344.873 35.0078C344.207 35.0078 343.725 35.2318 343.428 35.6797C343.131 36.1224 342.983 36.8594 342.983 37.8906V42H340.6V33.2656H342.42L342.741 34.3828H342.873C343.139 33.9609 343.504 33.6432 343.967 33.4297C344.436 33.2109 344.967 33.1016 345.561 33.1016C346.577 33.1016 347.347 33.3776 347.873 33.9297C348.399 34.4766 348.663 35.2682 348.663 36.3047V42ZM358.891 42H356.508V36.8984C356.508 36.2682 356.396 35.7969 356.172 35.4844C355.948 35.1667 355.591 35.0078 355.102 35.0078C354.435 35.0078 353.953 35.2318 353.656 35.6797C353.359 36.1224 353.211 36.8594 353.211 37.8906V42H350.828V33.2656H352.648L352.969 34.3828H353.102C353.367 33.9609 353.732 33.6432 354.195 33.4297C354.664 33.2109 355.195 33.1016 355.789 33.1016C356.805 33.1016 357.576 33.3776 358.102 33.9297C358.628 34.4766 358.891 35.2682 358.891 36.3047V42ZM364.673 34.7969C364.168 34.7969 363.772 34.9583 363.486 35.2812C363.199 35.599 363.035 36.0521 362.994 36.6406H366.337C366.327 36.0521 366.173 35.599 365.877 35.2812C365.58 34.9583 365.179 34.7969 364.673 34.7969ZM365.009 42.1562C363.603 42.1562 362.504 41.7682 361.712 40.9922C360.921 40.2161 360.525 39.1172 360.525 37.6953C360.525 36.2318 360.89 35.1016 361.619 34.3047C362.353 33.5026 363.366 33.1016 364.658 33.1016C365.892 33.1016 366.853 33.4531 367.541 34.1562C368.228 34.8594 368.572 35.8307 368.572 37.0703V38.2266H362.939C362.965 38.9036 363.166 39.4323 363.541 39.8125C363.916 40.1927 364.442 40.3828 365.119 40.3828C365.645 40.3828 366.142 40.3281 366.611 40.2188C367.08 40.1094 367.569 39.9349 368.08 39.6953V41.5391C367.663 41.7474 367.218 41.901 366.744 42C366.27 42.1042 365.692 42.1562 365.009 42.1562ZM373.769 42.1562C371.05 42.1562 369.691 40.6641 369.691 37.6797C369.691 36.1953 370.06 35.0625 370.8 34.2812C371.54 33.4948 372.599 33.1016 373.98 33.1016C374.99 33.1016 375.896 33.2995 376.698 33.6953L375.995 35.5391C375.62 35.388 375.271 35.2656 374.948 35.1719C374.626 35.0729 374.303 35.0234 373.98 35.0234C372.74 35.0234 372.12 35.9036 372.12 37.6641C372.12 39.3724 372.74 40.2266 373.98 40.2266C374.438 40.2266 374.862 40.1667 375.253 40.0469C375.644 39.9219 376.034 39.7292 376.425 39.4688V41.5078C376.04 41.7526 375.649 41.9219 375.253 42.0156C374.862 42.1094 374.368 42.1562 373.769 42.1562ZM381.848 40.2578C382.265 40.2578 382.765 40.1667 383.348 39.9844V41.7578C382.755 42.0234 382.026 42.1562 381.161 42.1562C380.208 42.1562 379.512 41.9167 379.075 41.4375C378.643 40.9531 378.427 40.2292 378.427 39.2656V35.0547H377.286V34.0469L378.598 33.25L379.286 31.4062H380.809V33.2656H383.255V35.0547H380.809V39.2656C380.809 39.6042 380.903 39.8542 381.091 40.0156C381.283 40.1771 381.536 40.2578 381.848 40.2578ZM387.453 33.2656H390.062L391.711 38.1797C391.852 38.6068 391.948 39.112 392 39.6953H392.047C392.104 39.1589 392.216 38.6536 392.383 38.1797L394 33.2656H396.555L392.859 43.1172C392.521 44.0286 392.036 44.7109 391.406 45.1641C390.781 45.6172 390.049 45.8438 389.211 45.8438C388.799 45.8438 388.396 45.7995 388 45.7109V43.8203C388.286 43.888 388.599 43.9219 388.938 43.9219C389.359 43.9219 389.727 43.7917 390.039 43.5312C390.357 43.276 390.604 42.888 390.781 42.3672L390.922 41.9375L387.453 33.2656ZM399.423 37.6172C399.423 38.4818 399.564 39.1354 399.845 39.5781C400.132 40.0208 400.595 40.2422 401.236 40.2422C401.871 40.2422 402.327 40.0234 402.603 39.5859C402.884 39.1432 403.025 38.487 403.025 37.6172C403.025 36.7526 402.884 36.1042 402.603 35.6719C402.322 35.2396 401.861 35.0234 401.22 35.0234C400.585 35.0234 400.127 35.2396 399.845 35.6719C399.564 36.099 399.423 36.7474 399.423 37.6172ZM405.462 37.6172C405.462 39.0391 405.087 40.151 404.337 40.9531C403.587 41.7552 402.543 42.1562 401.205 42.1562C400.366 42.1562 399.627 41.974 398.986 41.6094C398.345 41.2396 397.853 40.7109 397.509 40.0234C397.166 39.3359 396.994 38.5339 396.994 37.6172C396.994 36.1901 397.366 35.0807 398.111 34.2891C398.856 33.4974 399.903 33.1016 401.252 33.1016C402.09 33.1016 402.83 33.2839 403.47 33.6484C404.111 34.013 404.603 34.5365 404.947 35.2188C405.291 35.901 405.462 36.7005 405.462 37.6172ZM413.331 42L413.011 40.8828H412.886C412.631 41.2891 412.269 41.6042 411.8 41.8281C411.331 42.0469 410.797 42.1562 410.198 42.1562C409.172 42.1562 408.399 41.8828 407.878 41.3359C407.357 40.7839 407.097 39.9922 407.097 38.9609V33.2656H409.48V38.3672C409.48 38.9974 409.592 39.4714 409.816 39.7891C410.04 40.1016 410.396 40.2578 410.886 40.2578C411.553 40.2578 412.034 40.0365 412.331 39.5938C412.628 39.1458 412.777 38.4062 412.777 37.375V33.2656H415.159V42H413.331ZM422.247 33.1016C422.57 33.1016 422.838 33.125 423.052 33.1719L422.872 35.4062C422.679 35.3542 422.445 35.3281 422.169 35.3281C421.408 35.3281 420.815 35.5234 420.387 35.9141C419.966 36.3047 419.755 36.8516 419.755 37.5547V42H417.372V33.2656H419.177L419.528 34.7344H419.645C419.916 34.2448 420.281 33.8516 420.739 33.5547C421.203 33.2526 421.705 33.1016 422.247 33.1016ZM435.398 42L434.727 38.9453L433.836 35.0859H433.766L432.172 42H429.609L427.125 33.2656H429.5L430.508 37.1328C430.622 37.5911 430.781 38.5469 430.984 40H431.047C431.068 39.6042 431.159 38.9766 431.32 38.1172L431.445 37.4531L432.523 33.2656H435.148L436.172 37.4531C436.234 37.7396 436.31 38.1615 436.398 38.7188C436.492 39.2708 436.544 39.6979 436.555 40H436.617C436.674 39.5365 436.755 39.0104 436.859 38.4219C436.964 37.8281 437.052 37.3984 437.125 37.1328L438.172 33.2656H440.508L437.992 42H435.398ZM447.181 42L446.72 40.8125H446.658C446.257 41.3177 445.843 41.6693 445.416 41.8672C444.994 42.0599 444.442 42.1562 443.759 42.1562C442.921 42.1562 442.259 41.9167 441.775 41.4375C441.296 40.9583 441.056 40.276 441.056 39.3906C441.056 38.4635 441.379 37.7812 442.025 37.3438C442.676 36.901 443.655 36.6562 444.962 36.6094L446.478 36.5625V36.1797C446.478 35.2943 446.025 34.8516 445.119 34.8516C444.421 34.8516 443.601 35.0625 442.658 35.4844L441.869 33.875C442.874 33.349 443.989 33.0859 445.212 33.0859C446.384 33.0859 447.283 33.3411 447.908 33.8516C448.533 34.362 448.845 35.138 448.845 36.1797V42H447.181ZM446.478 37.9531L445.556 37.9844C444.864 38.0052 444.348 38.1302 444.009 38.3594C443.671 38.5885 443.502 38.9375 443.502 39.4062C443.502 40.0781 443.887 40.4141 444.658 40.4141C445.21 40.4141 445.65 40.2552 445.978 39.9375C446.311 39.6198 446.478 39.1979 446.478 38.6719V37.9531ZM453.402 42H451.019V29.8438H453.402V42ZM458.005 42H455.622V29.8438H458.005V42ZM463.842 34.7969C463.337 34.7969 462.941 34.9583 462.655 35.2812C462.368 35.599 462.204 36.0521 462.163 36.6406H465.506C465.496 36.0521 465.342 35.599 465.045 35.2812C464.748 34.9583 464.347 34.7969 463.842 34.7969ZM464.178 42.1562C462.772 42.1562 461.673 41.7682 460.881 40.9922C460.09 40.2161 459.694 39.1172 459.694 37.6953C459.694 36.2318 460.058 35.1016 460.788 34.3047C461.522 33.5026 462.535 33.1016 463.827 33.1016C465.061 33.1016 466.022 33.4531 466.709 34.1562C467.397 34.8594 467.741 35.8307 467.741 37.0703V38.2266H462.108C462.134 38.9036 462.334 39.4323 462.709 39.8125C463.084 40.1927 463.61 40.3828 464.288 40.3828C464.814 40.3828 465.311 40.3281 465.78 40.2188C466.248 40.1094 466.738 39.9349 467.248 39.6953V41.5391C466.832 41.7474 466.386 41.901 465.913 42C465.439 42.1042 464.86 42.1562 464.178 42.1562ZM473.07 40.2578C473.487 40.2578 473.987 40.1667 474.57 39.9844V41.7578C473.977 42.0234 473.247 42.1562 472.383 42.1562C471.43 42.1562 470.734 41.9167 470.297 41.4375C469.865 40.9531 469.648 40.2292 469.648 39.2656V35.0547H468.508V34.0469L469.82 33.25L470.508 31.4062H472.031V33.2656H474.477V35.0547H472.031V39.2656C472.031 39.6042 472.125 39.8542 472.312 40.0156C472.505 40.1771 472.758 40.2578 473.07 40.2578Z" fill="#828A97"/>
<path fill-rule="evenodd" clip-rule="evenodd" d="M35.9996 22.5451C28.5683 22.5451 22.5451 28.5683 22.5451 35.9996C22.5451 43.4295 28.5684 49.4542 35.9996 49.4542C43.4294 49.4542 49.4542 43.4294 49.4542 35.9996C49.4542 28.5684 43.4295 22.5451 35.9996 22.5451ZM20.3633 35.9996C20.3633 27.3633 27.3633 20.3633 35.9996 20.3633C44.6343 20.3633 51.636 27.3633 51.636 35.9996C51.636 44.6344 44.6344 51.636 35.9996 51.636C27.3633 51.636 20.3633 44.6343 20.3633 35.9996Z" fill="#828A97"/>
<path fill-rule="evenodd" clip-rule="evenodd" d="M36.0011 34.9082C36.6036 34.9082 37.092 35.3966 37.092 35.9991V42.5446C37.092 43.1471 36.6036 43.6355 36.0011 43.6355C35.3986 43.6355 34.9102 43.1471 34.9102 42.5446V35.9991C34.9102 35.3966 35.3986 34.9082 36.0011 34.9082Z" fill="#828A97"/>
<path fill-rule="evenodd" clip-rule="evenodd" d="M34.5391 30.5444C34.5391 29.7411 35.1903 29.0898 35.9936 29.0898H36.0082C36.8115 29.0898 37.4627 29.7411 37.4627 30.5444C37.4627 31.3477 36.8115 31.9989 36.0082 31.9989H35.9936C35.1903 31.9989 34.5391 31.3477 34.5391 30.5444Z" fill="#828A97"/>
</svg>
