<svg width="104" height="28" viewBox="0 0 104 28" fill="none" xmlns="http://www.w3.org/2000/svg">
<path d="M42.3293 24.2169V9.08203H38.5117V28.0009H54.6995L51.5316 24.2169H42.3293Z" fill="#FFD42C"/>
<path d="M100.209 9.08203V21.6766L89.6455 9.08203H85.8281V12.8171L87.949 15.3673H85.8281V28.0009H89.6455V15.3796L100.209 28.0009H103.999V9.08203H100.209Z" fill="#ED1C24"/>
<path d="M17.1241 9.08203H3.2765L0.108968 12.8657H11.4249L0 24.2169V28.0009H17.1241V24.2169H5.6987L17.1241 12.8657V9.08203Z" fill="#FFD42C"/>
<path d="M72.4586 9.08203V20.4604L69.6227 24.2169L66.7322 20.5552V9.08203H62.915V20.4604L60.1064 24.2169L57.2158 20.5472V9.08203H53.3984V22.3524L58.1704 28.0009H61.9878L64.8239 24.6225L67.7137 28.0009H71.5317L76.2487 22.3524V9.08203H72.4586Z" fill="#ED1C24"/>
<path d="M35.916 9.08203H19.7188V28.0009H35.916V24.2169H23.536V20.4604H34.9615V16.6767H25.6548L23.5352 18.4556L23.536 12.8657H35.916V9.08203Z" fill="#FFD42C"/>
<path d="M77.4062 15.3673H78.8933V28.0009H82.7107V15.3673V9.08203L77.4062 15.3673Z" fill="#ED1C24"/>
<path d="M73.3923 6.05405H72.5117L72.5117 0.240877H75.8202V0.979567H73.3923V2.85038H75.0879L74.42 3.58907H73.3923V6.05405Z" fill="#ED1C24"/>
<path d="M77.5796 0C77.7113 0 77.8265 0.0374698 77.9253 0.112409C78.024 0.187349 78.0734 0.31314 78.0734 0.489784C78.0734 0.661074 78.024 0.786866 77.9253 0.867158C77.8265 0.942098 77.7113 0.979567 77.5796 0.979567C77.437 0.979567 77.3163 0.942098 77.2175 0.867158C77.1242 0.786866 77.0776 0.661074 77.0776 0.489784C77.0776 0.31314 77.1242 0.187349 77.2175 0.112409C77.3163 0.0374698 77.437 0 77.5796 0ZM78.0076 1.64599V6.05405H77.1352V1.64599H78.0076Z" fill="#ED1C24"/>
<path d="M81.9985 1.5657C82.5143 1.5657 82.9093 1.69149 83.1836 1.94308C83.458 2.19466 83.5951 2.5988 83.5951 3.15549V6.05405H82.731V3.27593C82.731 2.60147 82.4265 2.26425 81.8174 2.26425C81.362 2.26425 81.0493 2.39539 80.8792 2.65768C80.7091 2.91997 80.6241 3.29734 80.6241 3.7898V6.05405H79.7517V1.64599H80.443L80.5665 2.2241H80.6158C80.7585 1.99928 80.9533 1.83334 81.2002 1.72629C81.4526 1.61923 81.7187 1.5657 81.9985 1.5657Z" fill="#ED1C24"/>
<path d="M87.0299 1.5657C87.584 1.5657 87.9983 1.68614 88.2726 1.92702C88.5525 2.16254 88.6924 2.53456 88.6924 3.04308V5.97376H88.0751L87.9023 5.37156H87.8694C87.6773 5.60709 87.4743 5.78105 87.2603 5.89346C87.0518 6.00052 86.761 6.05405 86.3879 6.05405C85.9874 6.05405 85.6555 5.94967 85.3921 5.74091C85.1287 5.52679 84.997 5.19492 84.997 4.74528C84.997 4.30635 85.1671 3.9718 85.5073 3.74163C85.8475 3.51145 86.4021 3.33222 87.1099 3.31081H87.5869H87.8364V3.09929C87.8364 2.78347 87.7624 2.56133 87.6142 2.43286C87.4661 2.29904 87.2576 2.23213 86.9887 2.23213C86.7638 2.23213 86.5471 2.26425 86.3386 2.32848C86.1301 2.39271 85.9298 2.47033 85.7378 2.56133L85.4579 1.94308C85.6664 1.83602 85.9051 1.7477 86.174 1.67811C86.4483 1.60317 86.7336 1.5657 87.0299 1.5657ZM87.2259 3.94268C86.7212 3.96409 86.3797 4.01462 86.1822 4.15915C85.9901 4.29832 85.8941 4.49637 85.8941 4.75331C85.8941 4.97813 85.9627 5.14139 86.0999 5.24309C86.237 5.3448 86.4154 5.39565 86.6348 5.39565C86.975 5.39565 87.2576 5.20086 87.4825 5.01351C87.713 4.82616 87.8282 4.54514 87.8282 4.17044V3.94268H87.2259Z" fill="#ED1C24"/>
<path d="M92.6566 1.5657C93.1724 1.5657 93.5674 1.69149 93.8417 1.94308C94.1161 2.19466 94.2532 2.5988 94.2532 3.15549V6.05405H93.3891V3.27593C93.3891 2.60147 93.0846 2.26425 92.4755 2.26425C92.0201 2.26425 91.7074 2.39539 91.5373 2.65768C91.3672 2.91997 91.2822 3.29734 91.2822 3.7898L91.2739 6.05405H90.4098V1.64599H91.1011L91.2246 2.2241H91.2739C91.4166 1.99928 91.6114 1.83334 91.8583 1.72629C92.1107 1.61923 92.3768 1.5657 92.6566 1.5657Z" fill="#ED1C24"/>
<path d="M97.7538 6.05405C97.1393 6.05405 96.6455 5.8774 96.2724 5.52412C95.8993 5.16548 95.7127 4.60343 95.7127 3.83798C95.7127 3.30269 95.8033 2.86912 95.9843 2.53724C96.1654 2.20537 96.4151 1.96181 96.7333 1.80658C97.0515 1.64599 97.4136 1.5657 97.8197 1.5657C98.0666 1.5657 98.297 1.59247 98.511 1.64599C98.7305 1.69417 98.9115 1.75037 99.0542 1.81461L98.7908 2.50512C98.6372 2.44624 98.4726 2.39539 98.297 2.35257C98.1269 2.30974 97.9651 2.28833 97.8114 2.28833C97.0104 2.28833 96.6098 2.80221 96.6098 3.82995C96.6098 4.32241 96.7086 4.69711 96.9061 4.95404C97.1036 5.21098 97.3944 5.33944 97.7785 5.33944C98.0254 5.33944 98.2421 5.31268 98.4287 5.25915C98.6207 5.20562 98.7963 5.13604 98.9554 5.05039V5.78908C98.7963 5.88008 98.6235 5.94699 98.4369 5.98981C98.2504 6.03264 98.0227 6.05405 97.7538 6.05405Z" fill="#ED1C24"/>
<path d="M102.121 1.5657C102.703 1.5657 103.161 1.74235 103.496 2.09563C103.831 2.44357 103.998 2.91997 103.998 3.52484V3.99053H101.019C101.03 4.43482 101.148 4.77472 101.373 5.01025C101.603 5.24577 101.924 5.36353 102.335 5.36353C102.621 5.36353 102.873 5.33944 103.093 5.29127C103.318 5.23774 103.762 5.11195 103.998 5.01025L103.33 5.86486C103.33 5.86486 103.202 5.96181 103.109 5.98178C102.884 6.02996 102.615 6.05405 102.303 6.05405C101.869 6.05405 101.488 5.97108 101.159 5.80514C100.835 5.6392 100.58 5.39297 100.393 5.06645C100.212 4.73458 100.122 4.32776 100.122 3.84601C100.122 3.3589 100.204 2.94673 100.368 2.6095C100.539 2.27228 100.772 2.01534 101.068 1.8387C101.37 1.6567 101.721 1.5657 102.121 1.5657ZM102.121 2.2241C101.809 2.2241 101.556 2.32313 101.364 2.52118C101.178 2.71924 101.068 3.00026 101.035 3.36425H103.126C103.12 3.02702 103.035 2.75403 102.87 2.54527C102.711 2.33116 102.462 2.2241 102.121 2.2241Z" fill="#ED1C24"/>
</svg>
