<svg width="24" height="24" viewBox="0 0 24 24" fill="none" xmlns="http://www.w3.org/2000/svg">
<path fill-rule="evenodd" clip-rule="evenodd" d="M12.0007 1.9098C6.42722 1.9098 1.9098 6.42722 1.9098 12.0007C1.9098 17.5731 6.42728 22.0916 12.0007 22.0916C17.573 22.0916 22.0916 17.573 22.0916 12.0007C22.0916 6.42728 17.5731 1.9098 12.0007 1.9098ZM0.273438 12.0007C0.273438 5.52348 5.52348 0.273438 12.0007 0.273438C18.4767 0.273438 23.728 5.52343 23.728 12.0007C23.728 18.4768 18.4768 23.728 12.0007 23.728C5.52343 23.728 0.273438 18.4767 0.273438 12.0007Z" fill="#828A97"/>
<path fill-rule="evenodd" clip-rule="evenodd" d="M12.0018 11.1816C12.4536 11.1816 12.82 11.548 12.82 11.9998V16.9089C12.82 17.3608 12.4536 17.7271 12.0018 17.7271C11.5499 17.7271 11.1836 17.3608 11.1836 16.9089V11.9998C11.1836 11.548 11.5499 11.1816 12.0018 11.1816Z" fill="#828A97"/>
<path fill-rule="evenodd" clip-rule="evenodd" d="M10.9062 7.90927C10.9062 7.30678 11.3947 6.81836 11.9972 6.81836H12.0081C12.6106 6.81836 13.099 7.30678 13.099 7.90927C13.099 8.51176 12.6106 9.00018 12.0081 9.00018H11.9972C11.3947 9.00018 10.9062 8.51176 10.9062 7.90927Z" fill="#828A97"/>
</svg>
